<svg xmlns="http://www.w3.org/2000/svg" viewBox="0 0 1600 1000" role="img" aria-label="周末出发社交现场">
  <defs>
    <linearGradient id="dusk" x1="0" y1="0" x2="1" y2="1"><stop offset="0" stop-color="#060202"/><stop offset="0.4" stop-color="#260806"/><stop offset="1" stop-color="#040101"/></linearGradient>
    <linearGradient id="platform" x1="0" y1="0" x2="1" y2="0"><stop offset="0" stop-color="#090303"/><stop offset="0.5" stop-color="#2a1208"/><stop offset="1" stop-color="#070202"/></linearGradient>
    <linearGradient id="go" x1="0" y1="0" x2="1" y2="0"><stop offset="0" stop-color="#ff2a2f"/><stop offset="0.55" stop-color="#ffb000"/><stop offset="1" stop-color="#ff2a2f" stop-opacity="0"/></linearGradient>
  </defs>
  <rect width="1600" height="1000" fill="url(#dusk)"/>
  <circle cx="1148" cy="250" r="118" fill="#ffb000" opacity="0.22"/>
  <path d="M0 574 L1600 438 L1600 1000 L0 1000 Z" fill="url(#platform)"/>
  <path d="M180 368 L1380 292 L1480 452 L260 536 Z" fill="#080303"/>
  <path d="M236 410 L1416 326" stroke="#f7f3e9" stroke-width="18" opacity="0.08"/>
  <path d="M0 652 C342 596 570 628 844 560 C1106 494 1324 504 1600 424" fill="none" stroke="url(#go)" stroke-width="21" opacity="0.96">
    <animate attributeName="stroke-dasharray" values="180 980;560 600;180 980" dur="8.5s" repeatCount="indefinite"/>
  </path>
  <path d="M-120 490 L1540 280 L1680 390 L0 624 Z" fill="#ff2a2f" opacity="0.13"/>
  <g fill="#050202">
    <circle cx="632" cy="730" r="34"/><rect x="608" y="764" width="50" height="140" rx="25"/>
    <circle cx="786" cy="704" r="32"/><rect x="764" y="738" width="46" height="126" rx="23"/>
    <circle cx="948" cy="720" r="36"/><rect x="922" y="756" width="54" height="148" rx="27"/>
  </g>
  <path d="M468 884 C620 780 746 826 894 738 C1038 654 1190 672 1356 580" fill="none" stroke="#ff2a2f" stroke-width="9" opacity="0.82"/>
</svg>
