<svg xmlns="http://www.w3.org/2000/svg" viewBox="0 0 1600 1000" role="img" aria-label="夜跑社交现场">
  <defs>
    <linearGradient id="sky" x1="0" y1="0" x2="1" y2="1">
      <stop offset="0" stop-color="#070202"/>
      <stop offset="0.42" stop-color="#1b0505"/>
      <stop offset="1" stop-color="#020101"/>
    </linearGradient>
    <linearGradient id="road" x1="0" y1="0" x2="1" y2="0">
      <stop offset="0" stop-color="#080303"/>
      <stop offset="0.44" stop-color="#19100b"/>
      <stop offset="1" stop-color="#050202"/>
    </linearGradient>
    <linearGradient id="pulse" x1="0" y1="0" x2="1" y2="0">
      <stop offset="0" stop-color="#ff2a2f"/>
      <stop offset="0.55" stop-color="#ffb000"/>
      <stop offset="1" stop-color="#ff2a2f" stop-opacity="0"/>
    </linearGradient>
  </defs>
  <rect width="1600" height="1000" fill="url(#sky)"/>
  <path d="M0 672 C330 600 528 644 842 572 C1128 506 1320 532 1600 460 L1600 1000 L0 1000 Z" fill="url(#road)"/>
  <path d="M0 718 C322 674 548 702 848 632 C1160 558 1344 586 1600 520" fill="none" stroke="url(#pulse)" stroke-width="18" stroke-linecap="square">
    <animate attributeName="stroke-dasharray" values="160 980;420 720;160 980" dur="8s" repeatCount="indefinite"/>
  </path>
  <path d="M-80 462 L1680 274 L1680 398 L-80 600 Z" fill="#ff2a2f" opacity="0.16">
    <animate attributeName="opacity" values="0.12;0.24;0.12" dur="6s" repeatCount="indefinite"/>
  </path>
  <path d="M930 206 L1600 86 L1600 188 L950 330 Z" fill="#ffb000" opacity="0.12"/>
  <g fill="#040202">
    <rect x="0" y="312" width="210" height="360"/>
    <rect x="1220" y="256" width="260" height="360"/>
    <rect x="1460" y="198" width="180" height="430"/>
  </g>
  <g fill="#060303">
    <ellipse cx="560" cy="798" rx="30" ry="56"/>
    <rect x="540" y="706" width="40" height="120" rx="20"/>
    <circle cx="560" cy="674" r="30"/>
    <ellipse cx="720" cy="760" rx="34" ry="64"/>
    <rect x="696" y="662" width="48" height="132" rx="24"/>
    <circle cx="720" cy="626" r="34"/>
    <ellipse cx="906" cy="786" rx="30" ry="58"/>
    <rect x="886" y="696" width="40" height="122" rx="20"/>
    <circle cx="906" cy="660" r="31"/>
  </g>
  <path d="M460 812 C584 768 666 766 782 712 C874 670 980 666 1120 610" fill="none" stroke="#ff2a2f" stroke-width="8" opacity="0.8"/>
</svg>
