<svg xmlns="http://www.w3.org/2000/svg" viewBox="0 0 1800 1200" role="img" aria-label="FitMeet city operating skin with routes, people, courts and travel nodes">
  <defs>
    <linearGradient id="bg" x1="0" y1="0" x2="1" y2="1">
      <stop offset="0" stop-color="#070202"/>
      <stop offset="0.34" stop-color="#1b0505"/>
      <stop offset="0.62" stop-color="#060606"/>
      <stop offset="1" stop-color="#140303"/>
    </linearGradient>
    <linearGradient id="pulse" x1="0" y1="0" x2="1" y2="0">
      <stop offset="0" stop-color="#ff2a16"/>
      <stop offset="0.42" stop-color="#ff6a1d"/>
      <stop offset="0.7" stop-color="#fff1a8"/>
      <stop offset="1" stop-color="#3cf6ff"/>
    </linearGradient>
    <linearGradient id="panel" x1="0" y1="0" x2="1" y2="1">
      <stop offset="0" stop-color="#240505"/>
      <stop offset="0.55" stop-color="#080808"/>
      <stop offset="1" stop-color="#300707"/>
    </linearGradient>
    <pattern id="cityGrid" width="90" height="90" patternUnits="userSpaceOnUse">
      <path d="M90 0H0V90" fill="none" stroke="#ff3a21" stroke-opacity="0.12" stroke-width="1"/>
    </pattern>
  </defs>

  <rect width="1800" height="1200" fill="url(#bg)"/>
  <rect width="1800" height="1200" fill="url(#cityGrid)" opacity="0.7"/>

  <g opacity="0.56" fill="url(#panel)" stroke="#ff3a21" stroke-opacity="0.24">
    <path d="M40 210h310v460H40z"/>
    <path d="M408 130h220v610H408z"/>
    <path d="M720 250h180v520H720z"/>
    <path d="M1110 180h260v590h-260z"/>
    <path d="M1450 80h250v680h-250z"/>
    <path d="M114 760h420v300H114z"/>
    <path d="M640 820h540v250H640z"/>
    <path d="M1280 780h430v330h-430z"/>
  </g>

  <g opacity="0.82" fill="none" stroke-linecap="square">
    <path d="M-80 840 C260 720 430 790 690 650 C980 494 1190 565 1880 380" stroke="url(#pulse)" stroke-width="18"/>
    <path d="M-60 920 C270 806 470 872 744 736 C1010 604 1240 658 1860 500" stroke="#ff2a16" stroke-opacity="0.36" stroke-width="4" stroke-dasharray="44 34"/>
    <path d="M140 410 C356 342 554 392 740 318 C1010 212 1204 278 1660 130" stroke="#fff1a8" stroke-opacity="0.24" stroke-width="3"/>
    <path d="M250 1010 C538 920 820 970 1070 865 C1290 772 1480 748 1780 695" stroke="#3cf6ff" stroke-opacity="0.28" stroke-width="5"/>
  </g>

  <g fill="none" stroke="#f7e8c8" stroke-opacity="0.7" stroke-width="4">
    <path d="M830 780h290"/>
    <circle cx="975" cy="780" r="76"/>
    <path d="M888 724h174v112H888z"/>
    <path d="M975 724v112"/>
    <path d="M1370 365h170v96h-170z"/>
    <path d="M1455 365v96"/>
    <circle cx="1455" cy="412" r="56"/>
  </g>

  <g fill="#fff4cc" stroke="#fff4cc" stroke-linecap="square" opacity="0.88">
    <g transform="translate(344 760)">
      <circle cx="0" cy="-70" r="17"/>
      <rect x="-14" y="-50" width="28" height="86" rx="3"/>
      <path d="M-10 -12l-48 42M12 -12l52 36M-8 34l-34 76M12 34l42 76" stroke-width="9" fill="none"/>
    </g>
    <g transform="translate(560 700)">
      <circle cx="0" cy="-70" r="15"/>
      <rect x="-13" y="-52" width="26" height="82" rx="3"/>
      <path d="M-10 -16l-42 34M12 -16l48 28M-8 30l-30 66M12 30l34 68" stroke-width="8" fill="none"/>
    </g>
    <g transform="translate(1210 625)">
      <circle cx="0" cy="-72" r="18"/>
      <rect x="-15" y="-52" width="30" height="92" rx="3"/>
      <path d="M-12 -14l-54 44M14 -14l58 42M-10 38l-36 78M12 38l46 78" stroke-width="10" fill="none"/>
    </g>
    <g transform="translate(1540 510)">
      <circle cx="0" cy="-66" r="14"/>
      <rect x="-12" y="-50" width="24" height="76" rx="3"/>
      <path d="M-9 -16l-36 30M11 -16l42 24M-8 26l-26 58M10 26l32 58" stroke-width="7" fill="none"/>
    </g>
  </g>

  <g opacity="0.64" stroke="#ff3a21" stroke-width="6" fill="none">
    <path d="M210 238h180M210 286h124M470 196h122M1148 246h176M1492 150h154"/>
    <path d="M184 968h210M704 924h250M1330 902h270" stroke="#fff1a8" stroke-opacity="0.34"/>
  </g>

  <g opacity="0.72">
    <circle cx="690" cy="650" r="10" fill="#ff2a16"/>
    <circle cx="980" cy="494" r="10" fill="#fff1a8"/>
    <circle cx="1190" cy="565" r="10" fill="#3cf6ff"/>
    <circle cx="1455" cy="412" r="10" fill="#ff6a1d"/>
  </g>
</svg>
