<svg xmlns="http://www.w3.org/2000/svg" viewBox="0 0 1800 1100" role="img" aria-label="citywalk social cinematic frame">
  <defs>
    <linearGradient id="bg" x1="0" y1="0" x2="1" y2="1"><stop offset="0" stop-color="#030303"/><stop offset=".38" stop-color="#2a0905"/><stop offset=".64" stop-color="#f25a1d"/><stop offset="1" stop-color="#050202"/></linearGradient>
    <radialGradient id="sun" cx="73%" cy="40%" r="42%"><stop offset="0" stop-color="#ff7d24" stop-opacity=".78"/><stop offset=".46" stop-color="#b91308" stop-opacity=".38"/><stop offset="1" stop-color="#000" stop-opacity="0"/></radialGradient>
    <linearGradient id="shade" x1="0" y1="0" x2="1" y2="0"><stop offset="0" stop-color="#000" stop-opacity=".98"/><stop offset=".4" stop-color="#000" stop-opacity=".72"/><stop offset=".7" stop-color="#000" stop-opacity=".1"/><stop offset="1" stop-color="#000" stop-opacity="0"/></linearGradient>
    <filter id="grain"><feTurbulence type="fractalNoise" baseFrequency="0.86" numOctaves="2" stitchTiles="stitch"/><feColorMatrix type="saturate" values="0"/><feComponentTransfer><feFuncA type="table" tableValues="0 .09"/></feComponentTransfer></filter>
    <clipPath id="cut"><polygon points="120,0 1800,0 1800,1100 0,1100 0,220"/></clipPath>
  </defs>
  <g clip-path="url(#cut)">
    <rect width="1800" height="1100" fill="url(#bg)"/><rect width="1800" height="1100" fill="url(#sun)"/><rect y="610" width="1800" height="490" fill="#050505"/><rect width="1800" height="1100" filter="url(#grain)"/>
    <g opacity=".88"><polygon points="900,160 1120,120 1120,790 900,835" fill="#020202"/><polygon points="1180,250 1450,218 1450,826 1180,870" fill="#030303"/><polygon points="1510,330 1750,296 1750,850 1510,896" fill="#020202"/></g>
    <path d="M540 792 C780 720 1080 692 1780 610" fill="none" stroke="#ffead6" stroke-width="5" opacity=".38"/><path d="M640 890 C960 832 1280 806 1810 750" fill="none" stroke="#ff431e" stroke-width="8" opacity=".72"/>
    <g fill="#020202" stroke="#020202" stroke-linecap="round" stroke-width="23"><g transform="translate(1110 575) scale(.9)"><circle r="23"/><path d="M-20 36 C-4 18 22 20 38 44 L50 126 C28 142 -2 144 -30 130 Z" fill="#020202"/><path d="M-22 130 L-66 236 M28 126 L78 236 M-20 60 L-80 112 M36 60 L105 92" fill="none"/><path d="M-10 44 C12 38 32 42 46 56" stroke="#ffead8" stroke-width="6" fill="none"/></g><g transform="translate(1290 548) scale(.82)"><circle r="23"/><path d="M-20 36 C-4 18 22 20 38 44 L50 126 C28 142 -2 144 -30 130 Z" fill="#020202"/><path d="M-22 130 L-66 236 M28 126 L78 236 M-20 60 L-80 112 M36 60 L105 92" fill="none"/></g></g>
    <rect width="1800" height="1100" fill="url(#shade)"/>
  </g>
</svg>
