<svg xmlns="http://www.w3.org/2000/svg" viewBox="0 0 1800 1100" role="img" aria-label="Social World cinematic social film frame">
  <defs>
    <linearGradient id="worldBg" x1="0" y1="0" x2="1" y2="1">
      <stop offset="0" stop-color="#020202"/>
      <stop offset="0.38" stop-color="#110302"/>
      <stop offset="0.7" stop-color="#8b0905"/>
      <stop offset="1" stop-color="#040101"/>
    </linearGradient>
    <radialGradient id="cityHeat" cx="75%" cy="44%" r="58%">
      <stop offset="0" stop-color="#ff3518" stop-opacity="0.95"/>
      <stop offset="0.34" stop-color="#c80a05" stop-opacity="0.58"/>
      <stop offset="0.78" stop-color="#160101" stop-opacity="0.2"/>
      <stop offset="1" stop-color="#000" stop-opacity="0"/>
    </radialGradient>
    <linearGradient id="leftFade" x1="0" y1="0" x2="1" y2="0">
      <stop offset="0" stop-color="#000" stop-opacity="0.98"/>
      <stop offset="0.34" stop-color="#000" stop-opacity="0.72"/>
      <stop offset="0.56" stop-color="#000" stop-opacity="0.2"/>
      <stop offset="1" stop-color="#000" stop-opacity="0"/>
    </linearGradient>
    <linearGradient id="streetLine" x1="0" y1="0" x2="1" y2="0">
      <stop offset="0" stop-color="#ff2315" stop-opacity="0"/>
      <stop offset="0.28" stop-color="#ff2e16" stop-opacity="0.94"/>
      <stop offset="0.68" stop-color="#ff8b20" stop-opacity="1"/>
      <stop offset="1" stop-color="#ff2315" stop-opacity="0"/>
    </linearGradient>
    <linearGradient id="runPhoto" x1="0" y1="0" x2="1" y2="1">
      <stop offset="0" stop-color="#080808"/>
      <stop offset="0.34" stop-color="#3a0503"/>
      <stop offset="0.68" stop-color="#f12d10"/>
      <stop offset="1" stop-color="#050505"/>
    </linearGradient>
    <linearGradient id="courtPhoto" x1="0" y1="0" x2="1" y2="1">
      <stop offset="0" stop-color="#160403"/>
      <stop offset="0.48" stop-color="#b70e07"/>
      <stop offset="1" stop-color="#050202"/>
    </linearGradient>
    <linearGradient id="cityPhoto" x1="0" y1="0" x2="1" y2="1">
      <stop offset="0" stop-color="#220905"/>
      <stop offset="0.42" stop-color="#e65a1c"/>
      <stop offset="1" stop-color="#070202"/>
    </linearGradient>
    <linearGradient id="rim" x1="0" y1="0" x2="1" y2="0">
      <stop offset="0" stop-color="#ffead8" stop-opacity="0"/>
      <stop offset="0.55" stop-color="#ffead8" stop-opacity="0.92"/>
      <stop offset="1" stop-color="#ff441f" stop-opacity="0"/>
    </linearGradient>
    <clipPath id="stage"><polygon points="112,0 1800,0 1800,1100 0,1100 0,210"/></clipPath>
    <clipPath id="filmA"><polygon points="0,48 478,0 535,420 48,472"/></clipPath>
    <clipPath id="filmB"><polygon points="56,0 620,48 560,470 0,420"/></clipPath>
    <clipPath id="filmC"><polygon points="0,0 486,0 546,360 42,414"/></clipPath>
    <filter id="grain"><feTurbulence type="fractalNoise" baseFrequency="0.86" numOctaves="2" stitchTiles="stitch"/><feColorMatrix type="saturate" values="0"/><feComponentTransfer><feFuncA type="table" tableValues="0 0.11"/></feComponentTransfer></filter>
  </defs>

  <symbol id="runner" viewBox="0 0 150 240">
    <ellipse cx="74" cy="30" rx="18" ry="23" fill="#070101"/>
    <path d="M50 62 C64 48 86 48 99 63 L108 122 C90 136 64 137 42 121 Z" fill="#070101"/>
    <path d="M52 118 L20 218 L51 222 L72 138 L92 222 L126 218 L100 118 Z" fill="#070101"/>
    <path d="M51 70 C24 88 6 112 -10 146" stroke="#070101" stroke-width="19" stroke-linecap="round" fill="none"/>
    <path d="M98 68 C130 80 150 98 170 126" stroke="#070101" stroke-width="19" stroke-linecap="round" fill="none"/>
    <path d="M58 70 C74 63 90 64 101 74" stroke="#ffead8" stroke-width="5" stroke-linecap="round" opacity="0.7"/>
    <path d="M82 44 C100 58 108 84 112 114" stroke="#ff3518" stroke-width="5" stroke-linecap="round" opacity="0.78"/>
  </symbol>

  <g clip-path="url(#stage)">
    <rect width="1800" height="1100" fill="url(#worldBg)"/>
    <rect width="1800" height="1100" fill="url(#cityHeat)"/>
    <rect y="582" width="1800" height="518" fill="#040404"/>
    <rect width="1800" height="1100" filter="url(#grain)"/>

    <g opacity="0.88">
      <polygon points="830,148 1135,118 1135,712 830,756" fill="#020202"/>
      <polygon points="1194,224 1538,192 1538,780 1194,824" fill="#020202"/>
      <polygon points="1592,292 1828,260 1828,825 1592,870" fill="#030303"/>
      <g stroke="#62130e" stroke-width="2" opacity="0.22"><path d="M890 300 H1100"/><path d="M890 395 H1100"/><path d="M1260 346 H1496"/><path d="M1260 438 H1496"/><path d="M1260 530 H1496"/></g>
    </g>

    <path d="M-90 775 C290 690 620 650 942 618 C1262 586 1520 538 1910 414" fill="none" stroke="url(#streetLine)" stroke-width="16"/>
    <path d="M-110 910 C328 818 730 792 1115 784 C1410 778 1618 744 1905 658" fill="none" stroke="url(#streetLine)" stroke-width="8" opacity="0.78"/>
    <path d="M-70 1030 C360 954 785 920 1152 902 C1460 888 1640 842 1890 770" fill="none" stroke="#ff4a1d" stroke-width="4" opacity="0.7"/>

    <g transform="translate(690 212) rotate(-5)">
      <g clip-path="url(#filmA)">
        <rect width="560" height="500" fill="url(#courtPhoto)"/>
        <rect y="310" width="560" height="190" fill="#050202" opacity="0.66"/>
        <path d="M-20 352 C125 314 292 300 580 238" stroke="#ffe1c8" stroke-width="5" opacity="0.48"/>
        <path d="M44 124 H510 M20 226 H532 M6 326 H544" stroke="#ff6c1d" stroke-width="4" opacity="0.34"/>
        <use href="#runner" x="124" y="145" width="150" height="240"/>
        <use href="#runner" x="296" y="168" width="128" height="205" transform="scale(-1 1) translate(-720 0)" opacity="0.92"/>
        <path d="M86 392 C176 374 302 368 490 348" stroke="url(#rim)" stroke-width="7" opacity="0.68"/>
      </g>
      <polygon points="0,48 478,0 535,420 48,472" fill="none" stroke="#ff3218" stroke-width="4" opacity="0.9"/>
    </g>

    <g transform="translate(1048 284) rotate(5)">
      <g clip-path="url(#filmB)">
        <rect width="650" height="500" fill="url(#runPhoto)"/>
        <rect y="318" width="650" height="182" fill="#050505" opacity="0.72"/>
        <path d="M-30 346 C130 284 330 258 674 180" stroke="#ff2d16" stroke-width="12" opacity="0.95"/>
        <path d="M56 382 C250 342 398 336 654 304" stroke="#ff8a1c" stroke-width="5" opacity="0.72"/>
        <ellipse cx="350" cy="360" rx="180" ry="25" fill="#ff2a16" opacity="0.14"/>
        <use href="#runner" x="130" y="178" width="128" height="205" opacity="0.94"/>
        <use href="#runner" x="286" y="146" width="132" height="212" transform="scale(-1 1) translate(-704 0)" opacity="0.98"/>
        <use href="#runner" x="440" y="210" width="96" height="154" opacity="0.82"/>
        <path d="M118 308 C232 276 362 264 552 226" stroke="url(#rim)" stroke-width="6" opacity="0.54"/>
      </g>
      <polygon points="56,0 620,48 560,470 0,420" fill="none" stroke="#ff4c22" stroke-width="4" opacity="0.94"/>
    </g>

    <g transform="translate(1260 604) rotate(-4)">
      <g clip-path="url(#filmC)">
        <rect width="570" height="430" fill="url(#cityPhoto)"/>
        <rect x="62" y="76" width="110" height="194" fill="#050505" opacity="0.84"/><rect x="208" y="34" width="156" height="260" fill="#070202" opacity="0.92"/><rect x="392" y="112" width="96" height="174" fill="#050505" opacity="0.82"/>
        <path d="M-10 302 C154 250 300 246 586 188" stroke="#ffefda" stroke-width="5" opacity="0.36"/>
        <use href="#runner" x="170" y="198" width="92" height="148" opacity="0.9"/>
        <use href="#runner" x="276" y="190" width="88" height="142" transform="scale(-1 1) translate(-640 0)" opacity="0.88"/>
        <path d="M84 342 C190 320 306 316 480 286" stroke="url(#rim)" stroke-width="6" opacity="0.5"/>
      </g>
      <polygon points="0,0 486,0 546,360 42,414" fill="none" stroke="#ff2a16" stroke-width="4" opacity="0.86"/>
    </g>

    <ellipse cx="1170" cy="868" rx="250" ry="32" fill="#ff2a16" opacity="0.18"/>
    <ellipse cx="1500" cy="922" rx="204" ry="24" fill="#ff8a1c" opacity="0.12"/>
    <rect width="1800" height="1100" fill="url(#leftFade)"/>
  </g>
</svg>
